<svg xmlns="http://www.w3.org/2000/svg" width="500" height="500" viewBox="0 0 500 500">
  <style type="text/css">
    .st0{fill:#6E45E2;}
    .st1{fill:#FFFFFF;}
  </style>
  <g>
    <path class="st0" d="M406.3,500H93.7C41.9,500,0,458.1,0,406.3V93.7C0,41.9,41.9,0,93.7,0h312.6C458.1,0,500,41.9,500,93.7v312.6
		C500,458.1,458.1,500,406.3,500z"/>
    <path class="st1" d="M230.1,393.2c-10.8,0-21.2-4.1-29.2-11.4L61.7,253.1c-17.4-16.1-18.5-43.3-2.4-60.7
		c16.1-17.4,43.3-18.5,60.7-2.4l107.1,99L377,121.1c15.8-17.7,43-19.2,60.7-3.4c17.7,15.8,19.2,43,3.4,60.7l-179,200.5
		c-7.7,8.6-18.5,13.8-30,14.3C231.4,393.2,230.8,393.2,230.1,393.2z"/>
  </g>
</svg>
